<mxfile host="Electron" agent="Mozilla/5.0 (Windows NT 10.0; Win64; x64) AppleWebKit/537.36 (KHTML, like Gecko) draw.io/26.0.7 Chrome/128.0.6613.186 Electron/32.2.5 Safari/537.36" version="26.0.7">
  <diagram name="페이지-1" id="kXQ-c9SwViyYugcfZlpw">
    <mxGraphModel dx="1434" dy="836" grid="1" gridSize="10" guides="1" tooltips="1" connect="1" arrows="1" fold="1" page="1" pageScale="1" pageWidth="827" pageHeight="1169" math="0" shadow="0">
      <root>
        <mxCell id="0" />
        <mxCell id="1" parent="0" />
        <mxCell id="jWN17VbowBbJggwUlKNN-3" value="여러가지 물 품들을 컨테이너에 보관할 수 있다" style="text;html=1;align=center;verticalAlign=middle;resizable=0;points=[];autosize=1;strokeColor=none;fillColor=none;fontSize=20;fontFamily=Hi Melody;fontSource=https%3A%2F%2Ffonts.googleapis.com%2Fcss%3Ffamily%3DHi%2BMelody;" parent="1" vertex="1">
          <mxGeometry x="95" y="350" width="360" height="40" as="geometry" />
        </mxCell>
        <mxCell id="jWN17VbowBbJggwUlKNN-15" value="" style="group" parent="1" vertex="1" connectable="0">
          <mxGeometry x="150" y="95" width="254" height="255" as="geometry" />
        </mxCell>
        <mxCell id="jWN17VbowBbJggwUlKNN-2" value="컨테이너" style="html=1;whiteSpace=wrap;shape=isoCube2;backgroundOutline=1;isoAngle=7.7272727272727275;sketch=1;hachureGap=4;jiggle=2;curveFitting=1;fontFamily=Hi Melody;fontSize=24;fillColor=#dae8fc;strokeColor=#6c8ebf;fontStyle=0;fontSource=https%3A%2F%2Ffonts.googleapis.com%2Fcss%3Ffamily%3DHi%2BMelody;" parent="jWN17VbowBbJggwUlKNN-15" vertex="1">
          <mxGeometry x="40" y="120" width="130" height="110" as="geometry" />
        </mxCell>
        <mxCell id="jWN17VbowBbJggwUlKNN-5" value="" style="curved=1;endArrow=classic;html=1;rounded=0;sketch=1;hachureGap=4;jiggle=2;curveFitting=1;fontFamily=Architects Daughter;fontSource=https%3A%2F%2Ffonts.googleapis.com%2Fcss%3Ffamily%3DArchitects%2BDaughter;fontSize=16;" parent="jWN17VbowBbJggwUlKNN-15" target="jWN17VbowBbJggwUlKNN-2" edge="1">
          <mxGeometry width="50" height="50" relative="1" as="geometry">
            <mxPoint x="190" y="120" as="sourcePoint" />
            <mxPoint x="120" y="150" as="targetPoint" />
            <Array as="points">
              <mxPoint x="190" y="90" />
              <mxPoint x="140" y="100" />
            </Array>
          </mxGeometry>
        </mxCell>
        <mxCell id="jWN17VbowBbJggwUlKNN-6" value="" style="ellipse;whiteSpace=wrap;html=1;aspect=fixed;sketch=1;hachureGap=4;jiggle=2;curveFitting=1;fontFamily=Hi Melody;fontSource=https%3A%2F%2Ffonts.googleapis.com%2Fcss%3Ffamily%3DHi%2BMelody;fontSize=12;" parent="jWN17VbowBbJggwUlKNN-15" vertex="1">
          <mxGeometry x="190" y="120" width="40" height="40" as="geometry" />
        </mxCell>
        <mxCell id="jWN17VbowBbJggwUlKNN-7" value="" style="ellipse;whiteSpace=wrap;html=1;aspect=fixed;sketch=1;hachureGap=4;jiggle=2;curveFitting=1;fontFamily=Hi Melody;fontSource=https%3A%2F%2Ffonts.googleapis.com%2Fcss%3Ffamily%3DHi%2BMelody;fontSize=12;" parent="jWN17VbowBbJggwUlKNN-15" vertex="1">
          <mxGeometry y="70" width="40" height="40" as="geometry" />
        </mxCell>
        <mxCell id="jWN17VbowBbJggwUlKNN-8" value="" style="curved=1;endArrow=classic;html=1;rounded=0;sketch=1;hachureGap=4;jiggle=2;curveFitting=1;fontFamily=Architects Daughter;fontSource=https%3A%2F%2Ffonts.googleapis.com%2Fcss%3Ffamily%3DArchitects%2BDaughter;fontSize=16;" parent="jWN17VbowBbJggwUlKNN-15" target="jWN17VbowBbJggwUlKNN-2" edge="1">
          <mxGeometry width="50" height="50" relative="1" as="geometry">
            <mxPoint x="40" y="90" as="sourcePoint" />
            <mxPoint x="100" y="150" as="targetPoint" />
            <Array as="points">
              <mxPoint x="80" y="90" />
              <mxPoint x="90" y="120" />
            </Array>
          </mxGeometry>
        </mxCell>
        <mxCell id="jWN17VbowBbJggwUlKNN-9" value="" style="ellipse;whiteSpace=wrap;html=1;aspect=fixed;sketch=1;hachureGap=4;jiggle=2;curveFitting=1;fontFamily=Hi Melody;fontSource=https%3A%2F%2Ffonts.googleapis.com%2Fcss%3Ffamily%3DHi%2BMelody;fontSize=12;" parent="jWN17VbowBbJggwUlKNN-15" vertex="1">
          <mxGeometry x="85" width="40" height="40" as="geometry" />
        </mxCell>
        <mxCell id="jWN17VbowBbJggwUlKNN-10" value="" style="curved=1;endArrow=classic;html=1;rounded=0;sketch=1;hachureGap=4;jiggle=2;curveFitting=1;fontFamily=Architects Daughter;fontSource=https%3A%2F%2Ffonts.googleapis.com%2Fcss%3Ffamily%3DArchitects%2BDaughter;fontSize=16;" parent="jWN17VbowBbJggwUlKNN-15" target="jWN17VbowBbJggwUlKNN-2" edge="1">
          <mxGeometry width="50" height="50" relative="1" as="geometry">
            <mxPoint x="100" y="50" as="sourcePoint" />
            <mxPoint x="90" y="120" as="targetPoint" />
            <Array as="points">
              <mxPoint x="100" y="90" />
              <mxPoint x="110" y="100" />
              <mxPoint x="105" y="120" />
            </Array>
          </mxGeometry>
        </mxCell>
        <mxCell id="jWN17VbowBbJggwUlKNN-30" value="" style="ellipse;whiteSpace=wrap;html=1;aspect=fixed;sketch=1;hachureGap=4;jiggle=2;fillStyle=auto;curveFitting=1;fontFamily=Hi Melody;fontSource=https%3A%2F%2Ffonts.googleapis.com%2Fcss%3Ffamily%3DHi%2BMelody;fontSize=24;fillColor=#f5f5f5;fontColor=#333333;strokeColor=#666666;" parent="jWN17VbowBbJggwUlKNN-15" vertex="1">
          <mxGeometry x="-26" y="-25" width="280" height="280" as="geometry" />
        </mxCell>
        <mxCell id="jWN17VbowBbJggwUlKNN-25" value="컨테이너에 담은 후엔 자체적으로 보관 및 관리 된다" style="text;html=1;align=center;verticalAlign=middle;resizable=0;points=[];autosize=1;strokeColor=none;fillColor=none;fontSize=20;fontFamily=Hi Melody;fontSource=https%3A%2F%2Ffonts.googleapis.com%2Fcss%3Ffamily%3DHi%2BMelody;" parent="1" vertex="1">
          <mxGeometry x="530" y="350" width="400" height="40" as="geometry" />
        </mxCell>
        <mxCell id="jWN17VbowBbJggwUlKNN-31" value="" style="group" parent="1" vertex="1" connectable="0">
          <mxGeometry x="580" y="70" width="300" height="280" as="geometry" />
        </mxCell>
        <mxCell id="jWN17VbowBbJggwUlKNN-27" value="" style="shape=sumEllipse;perimeter=ellipsePerimeter;whiteSpace=wrap;html=1;backgroundOutline=1;sketch=1;hachureGap=4;jiggle=2;curveFitting=1;fontFamily=Hi Melody;fontSource=https%3A%2F%2Ffonts.googleapis.com%2Fcss%3Ffamily%3DHi%2BMelody;fontSize=24;fillColor=#f5f5f5;fontColor=#333333;strokeColor=#666666;" parent="jWN17VbowBbJggwUlKNN-31" vertex="1">
          <mxGeometry width="300" height="280" as="geometry" />
        </mxCell>
        <mxCell id="jWN17VbowBbJggwUlKNN-17" value="컨테이너" style="html=1;whiteSpace=wrap;shape=isoCube2;backgroundOutline=1;isoAngle=7.7272727272727275;sketch=1;hachureGap=4;jiggle=2;curveFitting=1;fontFamily=Hi Melody;fontSize=24;fillColor=#dae8fc;strokeColor=#6c8ebf;fontStyle=0;fontSource=https%3A%2F%2Ffonts.googleapis.com%2Fcss%3Ffamily%3DHi%2BMelody;" parent="jWN17VbowBbJggwUlKNN-31" vertex="1">
          <mxGeometry x="85" y="147.5" width="130" height="110" as="geometry" />
        </mxCell>
        <mxCell id="jWN17VbowBbJggwUlKNN-18" value="" style="curved=1;endArrow=classic;html=1;rounded=0;sketch=1;hachureGap=4;jiggle=2;curveFitting=1;fontFamily=Architects Daughter;fontSource=https%3A%2F%2Ffonts.googleapis.com%2Fcss%3Ffamily%3DArchitects%2BDaughter;fontSize=16;" parent="jWN17VbowBbJggwUlKNN-31" target="jWN17VbowBbJggwUlKNN-17" edge="1">
          <mxGeometry width="50" height="50" relative="1" as="geometry">
            <mxPoint x="235" y="147.5" as="sourcePoint" />
            <mxPoint x="165" y="177.5" as="targetPoint" />
            <Array as="points">
              <mxPoint x="235" y="117.5" />
              <mxPoint x="185" y="127.5" />
            </Array>
          </mxGeometry>
        </mxCell>
        <mxCell id="jWN17VbowBbJggwUlKNN-19" value="" style="ellipse;whiteSpace=wrap;html=1;aspect=fixed;sketch=1;hachureGap=4;jiggle=2;curveFitting=1;fontFamily=Hi Melody;fontSource=https%3A%2F%2Ffonts.googleapis.com%2Fcss%3Ffamily%3DHi%2BMelody;fontSize=12;" parent="jWN17VbowBbJggwUlKNN-31" vertex="1">
          <mxGeometry x="235" y="147.5" width="40" height="40" as="geometry" />
        </mxCell>
        <mxCell id="jWN17VbowBbJggwUlKNN-20" value="" style="ellipse;whiteSpace=wrap;html=1;aspect=fixed;sketch=1;hachureGap=4;jiggle=2;curveFitting=1;fontFamily=Hi Melody;fontSource=https%3A%2F%2Ffonts.googleapis.com%2Fcss%3Ffamily%3DHi%2BMelody;fontSize=12;" parent="jWN17VbowBbJggwUlKNN-31" vertex="1">
          <mxGeometry x="45" y="97.5" width="40" height="40" as="geometry" />
        </mxCell>
        <mxCell id="jWN17VbowBbJggwUlKNN-21" value="" style="curved=1;endArrow=classic;html=1;rounded=0;sketch=1;hachureGap=4;jiggle=2;curveFitting=1;fontFamily=Architects Daughter;fontSource=https%3A%2F%2Ffonts.googleapis.com%2Fcss%3Ffamily%3DArchitects%2BDaughter;fontSize=16;" parent="jWN17VbowBbJggwUlKNN-31" target="jWN17VbowBbJggwUlKNN-17" edge="1">
          <mxGeometry width="50" height="50" relative="1" as="geometry">
            <mxPoint x="85" y="117.5" as="sourcePoint" />
            <mxPoint x="145" y="177.5" as="targetPoint" />
            <Array as="points">
              <mxPoint x="125" y="117.5" />
              <mxPoint x="135" y="147.5" />
            </Array>
          </mxGeometry>
        </mxCell>
        <mxCell id="jWN17VbowBbJggwUlKNN-22" value="" style="ellipse;whiteSpace=wrap;html=1;aspect=fixed;sketch=1;hachureGap=4;jiggle=2;curveFitting=1;fontFamily=Hi Melody;fontSource=https%3A%2F%2Ffonts.googleapis.com%2Fcss%3Ffamily%3DHi%2BMelody;fontSize=12;" parent="jWN17VbowBbJggwUlKNN-31" vertex="1">
          <mxGeometry x="130" y="27.5" width="40" height="40" as="geometry" />
        </mxCell>
        <mxCell id="jWN17VbowBbJggwUlKNN-23" value="" style="curved=1;endArrow=classic;html=1;rounded=0;sketch=1;hachureGap=4;jiggle=2;curveFitting=1;fontFamily=Architects Daughter;fontSource=https%3A%2F%2Ffonts.googleapis.com%2Fcss%3Ffamily%3DArchitects%2BDaughter;fontSize=16;" parent="jWN17VbowBbJggwUlKNN-31" target="jWN17VbowBbJggwUlKNN-17" edge="1">
          <mxGeometry width="50" height="50" relative="1" as="geometry">
            <mxPoint x="145" y="77.5" as="sourcePoint" />
            <mxPoint x="135" y="147.5" as="targetPoint" />
            <Array as="points">
              <mxPoint x="145" y="117.5" />
              <mxPoint x="155" y="127.5" />
              <mxPoint x="150" y="147.5" />
            </Array>
          </mxGeometry>
        </mxCell>
        <mxCell id="jWN17VbowBbJggwUlKNN-33" value="" style="group" parent="1" vertex="1" connectable="0">
          <mxGeometry x="990" y="70" width="190" height="180" as="geometry" />
        </mxCell>
        <mxCell id="jWN17VbowBbJggwUlKNN-34" value="" style="shape=sumEllipse;perimeter=ellipsePerimeter;whiteSpace=wrap;html=1;backgroundOutline=1;sketch=1;hachureGap=4;jiggle=2;curveFitting=1;fontFamily=Hi Melody;fontSource=https%3A%2F%2Ffonts.googleapis.com%2Fcss%3Ffamily%3DHi%2BMelody;fontSize=24;fillColor=#f5f5f5;fontColor=#333333;strokeColor=#666666;" parent="jWN17VbowBbJggwUlKNN-33" vertex="1">
          <mxGeometry width="190.00000000000003" height="180.00000000000003" as="geometry" />
        </mxCell>
        <mxCell id="jWN17VbowBbJggwUlKNN-35" value="" style="html=1;whiteSpace=wrap;shape=isoCube2;backgroundOutline=1;isoAngle=7.7272727272727275;sketch=1;hachureGap=4;jiggle=2;curveFitting=1;fontFamily=Hi Melody;fontSize=24;fillColor=#dae8fc;strokeColor=#6c8ebf;fontStyle=0;fontSource=https%3A%2F%2Ffonts.googleapis.com%2Fcss%3Ffamily%3DHi%2BMelody;" parent="jWN17VbowBbJggwUlKNN-33" vertex="1">
          <mxGeometry x="53.83333333333333" y="94.82142857142857" width="82.33333333333333" height="70.71428571428571" as="geometry" />
        </mxCell>
        <mxCell id="jWN17VbowBbJggwUlKNN-36" value="" style="curved=1;endArrow=classic;html=1;rounded=0;sketch=1;hachureGap=4;jiggle=2;curveFitting=1;fontFamily=Architects Daughter;fontSource=https%3A%2F%2Ffonts.googleapis.com%2Fcss%3Ffamily%3DArchitects%2BDaughter;fontSize=16;" parent="jWN17VbowBbJggwUlKNN-33" target="jWN17VbowBbJggwUlKNN-35" edge="1">
          <mxGeometry width="50" height="50" relative="1" as="geometry">
            <mxPoint x="148.83333333333334" y="94.82142857142857" as="sourcePoint" />
            <mxPoint x="104.50000000000001" y="114.10714285714285" as="targetPoint" />
            <Array as="points">
              <mxPoint x="148.83333333333334" y="75.53571428571428" />
              <mxPoint x="117.16666666666666" y="81.96428571428571" />
            </Array>
          </mxGeometry>
        </mxCell>
        <mxCell id="jWN17VbowBbJggwUlKNN-37" value="" style="ellipse;whiteSpace=wrap;html=1;aspect=fixed;sketch=1;hachureGap=4;jiggle=2;curveFitting=1;fontFamily=Hi Melody;fontSource=https%3A%2F%2Ffonts.googleapis.com%2Fcss%3Ffamily%3DHi%2BMelody;fontSize=12;" parent="jWN17VbowBbJggwUlKNN-33" vertex="1">
          <mxGeometry x="148.83333333333334" y="94.82142857142857" width="24.29688273132113" height="24.29688273132113" as="geometry" />
        </mxCell>
        <mxCell id="jWN17VbowBbJggwUlKNN-38" value="" style="ellipse;whiteSpace=wrap;html=1;aspect=fixed;sketch=1;hachureGap=4;jiggle=2;curveFitting=1;fontFamily=Hi Melody;fontSource=https%3A%2F%2Ffonts.googleapis.com%2Fcss%3Ffamily%3DHi%2BMelody;fontSize=12;" parent="jWN17VbowBbJggwUlKNN-33" vertex="1">
          <mxGeometry x="28.5" y="62.67857142857143" width="24.29688273132113" height="24.29688273132113" as="geometry" />
        </mxCell>
        <mxCell id="jWN17VbowBbJggwUlKNN-39" value="" style="curved=1;endArrow=classic;html=1;rounded=0;sketch=1;hachureGap=4;jiggle=2;curveFitting=1;fontFamily=Architects Daughter;fontSource=https%3A%2F%2Ffonts.googleapis.com%2Fcss%3Ffamily%3DArchitects%2BDaughter;fontSize=16;" parent="jWN17VbowBbJggwUlKNN-33" target="jWN17VbowBbJggwUlKNN-35" edge="1">
          <mxGeometry width="50" height="50" relative="1" as="geometry">
            <mxPoint x="53.83333333333333" y="75.53571428571428" as="sourcePoint" />
            <mxPoint x="91.83333333333333" y="114.10714285714285" as="targetPoint" />
            <Array as="points">
              <mxPoint x="79.16666666666666" y="75.53571428571428" />
              <mxPoint x="85.50000000000001" y="94.82142857142857" />
            </Array>
          </mxGeometry>
        </mxCell>
        <mxCell id="jWN17VbowBbJggwUlKNN-40" value="" style="ellipse;whiteSpace=wrap;html=1;aspect=fixed;sketch=1;hachureGap=4;jiggle=2;curveFitting=1;fontFamily=Hi Melody;fontSource=https%3A%2F%2Ffonts.googleapis.com%2Fcss%3Ffamily%3DHi%2BMelody;fontSize=12;" parent="jWN17VbowBbJggwUlKNN-33" vertex="1">
          <mxGeometry x="82.33333333333333" y="17.678571428571427" width="24.29688273132113" height="24.29688273132113" as="geometry" />
        </mxCell>
        <mxCell id="jWN17VbowBbJggwUlKNN-41" value="" style="curved=1;endArrow=classic;html=1;rounded=0;sketch=1;hachureGap=4;jiggle=2;curveFitting=1;fontFamily=Architects Daughter;fontSource=https%3A%2F%2Ffonts.googleapis.com%2Fcss%3Ffamily%3DArchitects%2BDaughter;fontSize=16;" parent="jWN17VbowBbJggwUlKNN-33" target="jWN17VbowBbJggwUlKNN-35" edge="1">
          <mxGeometry width="50" height="50" relative="1" as="geometry">
            <mxPoint x="91.83333333333333" y="49.82142857142858" as="sourcePoint" />
            <mxPoint x="85.50000000000001" y="94.82142857142857" as="targetPoint" />
            <Array as="points">
              <mxPoint x="91.83333333333333" y="75.53571428571428" />
              <mxPoint x="98.16666666666666" y="81.96428571428571" />
              <mxPoint x="95.00000000000001" y="94.82142857142857" />
            </Array>
          </mxGeometry>
        </mxCell>
        <mxCell id="jWN17VbowBbJggwUlKNN-78" value="한 컨테이너는 다른 컨테이너와 섞이지 않는다." style="text;html=1;align=center;verticalAlign=middle;resizable=0;points=[];autosize=1;strokeColor=none;fillColor=none;fontSize=20;fontFamily=Hi Melody;fontSource=https%3A%2F%2Ffonts.googleapis.com%2Fcss%3Ffamily%3DHi%2BMelody;" parent="1" vertex="1">
          <mxGeometry x="97" y="930" width="360" height="40" as="geometry" />
        </mxCell>
        <mxCell id="jWN17VbowBbJggwUlKNN-89" value="각 컨테이너는 각기 다른 특징을 가질 수 있고" style="text;html=1;align=center;verticalAlign=middle;resizable=0;points=[];autosize=1;strokeColor=none;fillColor=none;fontSize=20;fontFamily=Hi Melody;fontSource=https%3A%2F%2Ffonts.googleapis.com%2Fcss%3Ffamily%3DHi%2BMelody;" parent="1" vertex="1">
          <mxGeometry x="1010" y="350" width="350" height="40" as="geometry" />
        </mxCell>
        <mxCell id="jWN17VbowBbJggwUlKNN-93" value="" style="group" parent="1" vertex="1" connectable="0">
          <mxGeometry x="1190" y="140" width="190" height="180" as="geometry" />
        </mxCell>
        <mxCell id="jWN17VbowBbJggwUlKNN-81" value="" style="shape=sumEllipse;perimeter=ellipsePerimeter;whiteSpace=wrap;html=1;backgroundOutline=1;sketch=1;hachureGap=4;jiggle=2;curveFitting=1;fontFamily=Hi Melody;fontSource=https%3A%2F%2Ffonts.googleapis.com%2Fcss%3Ffamily%3DHi%2BMelody;fontSize=24;fillColor=#e3c800;fontColor=#000000;strokeColor=#B09500;" parent="jWN17VbowBbJggwUlKNN-93" vertex="1">
          <mxGeometry width="190.00000000000003" height="180.00000000000003" as="geometry" />
        </mxCell>
        <mxCell id="jWN17VbowBbJggwUlKNN-82" value="" style="html=1;whiteSpace=wrap;shape=isoCube2;backgroundOutline=1;isoAngle=7.7272727272727275;sketch=1;hachureGap=4;jiggle=2;curveFitting=1;fontFamily=Hi Melody;fontSize=24;fillColor=#dae8fc;strokeColor=#6c8ebf;fontStyle=0;fontSource=https%3A%2F%2Ffonts.googleapis.com%2Fcss%3Ffamily%3DHi%2BMelody;" parent="jWN17VbowBbJggwUlKNN-93" vertex="1">
          <mxGeometry x="53.83333333333326" y="94.82142857142856" width="82.33333333333333" height="70.71428571428571" as="geometry" />
        </mxCell>
        <mxCell id="jWN17VbowBbJggwUlKNN-83" value="" style="curved=1;endArrow=classic;html=1;rounded=0;sketch=1;hachureGap=4;jiggle=2;curveFitting=1;fontFamily=Architects Daughter;fontSource=https%3A%2F%2Ffonts.googleapis.com%2Fcss%3Ffamily%3DArchitects%2BDaughter;fontSize=16;" parent="jWN17VbowBbJggwUlKNN-93" target="jWN17VbowBbJggwUlKNN-82" edge="1">
          <mxGeometry width="50" height="50" relative="1" as="geometry">
            <mxPoint x="148.83333333333326" y="94.82142857142856" as="sourcePoint" />
            <mxPoint x="104.5" y="114.10714285714283" as="targetPoint" />
            <Array as="points">
              <mxPoint x="148.83333333333326" y="75.53571428571428" />
              <mxPoint x="117.16666666666674" y="81.96428571428572" />
            </Array>
          </mxGeometry>
        </mxCell>
        <mxCell id="jWN17VbowBbJggwUlKNN-85" value="" style="ellipse;whiteSpace=wrap;html=1;aspect=fixed;sketch=1;hachureGap=4;jiggle=2;curveFitting=1;fontFamily=Hi Melody;fontSource=https%3A%2F%2Ffonts.googleapis.com%2Fcss%3Ffamily%3DHi%2BMelody;fontSize=12;" parent="jWN17VbowBbJggwUlKNN-93" vertex="1">
          <mxGeometry x="28.5" y="62.678571428571445" width="24.29688273132113" height="24.29688273132113" as="geometry" />
        </mxCell>
        <mxCell id="jWN17VbowBbJggwUlKNN-86" value="" style="curved=1;endArrow=classic;html=1;rounded=0;sketch=1;hachureGap=4;jiggle=2;curveFitting=1;fontFamily=Architects Daughter;fontSource=https%3A%2F%2Ffonts.googleapis.com%2Fcss%3Ffamily%3DArchitects%2BDaughter;fontSize=16;" parent="jWN17VbowBbJggwUlKNN-93" target="jWN17VbowBbJggwUlKNN-82" edge="1">
          <mxGeometry width="50" height="50" relative="1" as="geometry">
            <mxPoint x="53.83333333333326" y="75.53571428571428" as="sourcePoint" />
            <mxPoint x="91.83333333333326" y="114.10714285714283" as="targetPoint" />
            <Array as="points">
              <mxPoint x="79.16666666666674" y="75.53571428571428" />
              <mxPoint x="85.5" y="94.82142857142856" />
            </Array>
          </mxGeometry>
        </mxCell>
        <mxCell id="jWN17VbowBbJggwUlKNN-88" value="" style="curved=1;endArrow=classic;html=1;rounded=0;sketch=1;hachureGap=4;jiggle=2;curveFitting=1;fontFamily=Architects Daughter;fontSource=https%3A%2F%2Ffonts.googleapis.com%2Fcss%3Ffamily%3DArchitects%2BDaughter;fontSize=16;" parent="jWN17VbowBbJggwUlKNN-93" target="jWN17VbowBbJggwUlKNN-82" edge="1">
          <mxGeometry width="50" height="50" relative="1" as="geometry">
            <mxPoint x="91.83333333333326" y="49.821428571428584" as="sourcePoint" />
            <mxPoint x="85.5" y="94.82142857142856" as="targetPoint" />
            <Array as="points">
              <mxPoint x="91.83333333333326" y="75.53571428571428" />
              <mxPoint x="98.16666666666674" y="81.96428571428572" />
              <mxPoint x="95" y="94.82142857142856" />
            </Array>
          </mxGeometry>
        </mxCell>
        <mxCell id="jWN17VbowBbJggwUlKNN-90" value="" style="rounded=0;whiteSpace=wrap;html=1;sketch=1;hachureGap=4;jiggle=2;fillStyle=auto;curveFitting=1;fontFamily=Hi Melody;fontSource=https%3A%2F%2Ffonts.googleapis.com%2Fcss%3Ffamily%3DHi%2BMelody;fontSize=24;fillColor=default;" parent="jWN17VbowBbJggwUlKNN-93" vertex="1">
          <mxGeometry x="150" y="86.98000000000002" width="20" height="20" as="geometry" />
        </mxCell>
        <mxCell id="jWN17VbowBbJggwUlKNN-91" value="" style="rhombus;whiteSpace=wrap;html=1;sketch=1;hachureGap=4;jiggle=2;fillStyle=auto;curveFitting=1;fontFamily=Hi Melody;fontSource=https%3A%2F%2Ffonts.googleapis.com%2Fcss%3Ffamily%3DHi%2BMelody;fontSize=24;fillColor=default;" parent="jWN17VbowBbJggwUlKNN-93" vertex="1">
          <mxGeometry x="80" y="20" width="30" height="30" as="geometry" />
        </mxCell>
        <mxCell id="jWN17VbowBbJggwUlKNN-111" value="" style="group" parent="1" vertex="1" connectable="0">
          <mxGeometry x="600" y="550" width="430" height="330" as="geometry" />
        </mxCell>
        <mxCell id="jWN17VbowBbJggwUlKNN-105" value="" style="rounded=1;whiteSpace=wrap;html=1;sketch=1;hachureGap=4;jiggle=2;fillStyle=auto;curveFitting=1;fontFamily=Hi Melody;fontSource=https%3A%2F%2Ffonts.googleapis.com%2Fcss%3Ffamily%3DHi%2BMelody;fontSize=24;fillColor=#f5f5f5;strokeColor=#666666;fontColor=#333333;" parent="jWN17VbowBbJggwUlKNN-111" vertex="1">
          <mxGeometry width="430" height="330" as="geometry" />
        </mxCell>
        <mxCell id="jWN17VbowBbJggwUlKNN-69" value="" style="group" parent="jWN17VbowBbJggwUlKNN-111" vertex="1" connectable="0">
          <mxGeometry x="300" y="198.75" width="110" height="107.5" as="geometry" />
        </mxCell>
        <mxCell id="jWN17VbowBbJggwUlKNN-70" value="" style="shape=sumEllipse;perimeter=ellipsePerimeter;whiteSpace=wrap;html=1;backgroundOutline=1;sketch=1;hachureGap=4;jiggle=2;curveFitting=1;fontFamily=Hi Melody;fontSource=https%3A%2F%2Ffonts.googleapis.com%2Fcss%3Ffamily%3DHi%2BMelody;fontSize=24;fillColor=#f5f5f5;fontColor=#333333;strokeColor=#666666;" parent="jWN17VbowBbJggwUlKNN-69" vertex="1">
          <mxGeometry width="110.00000000000001" height="107.50000000000001" as="geometry" />
        </mxCell>
        <mxCell id="jWN17VbowBbJggwUlKNN-71" value="" style="html=1;whiteSpace=wrap;shape=isoCube2;backgroundOutline=1;isoAngle=7.7272727272727275;sketch=1;hachureGap=4;jiggle=2;curveFitting=1;fontFamily=Hi Melody;fontSize=24;fillColor=#dae8fc;strokeColor=#6c8ebf;fontStyle=0;fontSource=https%3A%2F%2Ffonts.googleapis.com%2Fcss%3Ffamily%3DHi%2BMelody;" parent="jWN17VbowBbJggwUlKNN-69" vertex="1">
          <mxGeometry x="31.166666666666664" y="56.629464285714285" width="47.666666666666664" height="42.232142857142854" as="geometry" />
        </mxCell>
        <mxCell id="jWN17VbowBbJggwUlKNN-72" value="" style="curved=1;endArrow=classic;html=1;rounded=0;sketch=1;hachureGap=4;jiggle=2;curveFitting=1;fontFamily=Architects Daughter;fontSource=https%3A%2F%2Ffonts.googleapis.com%2Fcss%3Ffamily%3DArchitects%2BDaughter;fontSize=16;" parent="jWN17VbowBbJggwUlKNN-69" target="jWN17VbowBbJggwUlKNN-71" edge="1">
          <mxGeometry width="50" height="50" relative="1" as="geometry">
            <mxPoint x="86.16666666666667" y="56.629464285714285" as="sourcePoint" />
            <mxPoint x="60.50000000000001" y="68.14732142857142" as="targetPoint" />
            <Array as="points">
              <mxPoint x="86.16666666666667" y="45.11160714285714" />
              <mxPoint x="67.83333333333333" y="48.950892857142854" />
            </Array>
          </mxGeometry>
        </mxCell>
        <mxCell id="jWN17VbowBbJggwUlKNN-73" value="" style="ellipse;whiteSpace=wrap;html=1;aspect=fixed;sketch=1;hachureGap=4;jiggle=2;curveFitting=1;fontFamily=Hi Melody;fontSource=https%3A%2F%2Ffonts.googleapis.com%2Fcss%3Ffamily%3DHi%2BMelody;fontSize=12;" parent="jWN17VbowBbJggwUlKNN-69" vertex="1">
          <mxGeometry x="86.16666666666667" y="56.629464285714285" width="14.51063829787234" height="14.51063829787234" as="geometry" />
        </mxCell>
        <mxCell id="jWN17VbowBbJggwUlKNN-74" value="" style="ellipse;whiteSpace=wrap;html=1;aspect=fixed;sketch=1;hachureGap=4;jiggle=2;curveFitting=1;fontFamily=Hi Melody;fontSource=https%3A%2F%2Ffonts.googleapis.com%2Fcss%3Ffamily%3DHi%2BMelody;fontSize=12;" parent="jWN17VbowBbJggwUlKNN-69" vertex="1">
          <mxGeometry x="16.5" y="37.433035714285715" width="14.51063829787234" height="14.51063829787234" as="geometry" />
        </mxCell>
        <mxCell id="jWN17VbowBbJggwUlKNN-75" value="" style="curved=1;endArrow=classic;html=1;rounded=0;sketch=1;hachureGap=4;jiggle=2;curveFitting=1;fontFamily=Architects Daughter;fontSource=https%3A%2F%2Ffonts.googleapis.com%2Fcss%3Ffamily%3DArchitects%2BDaughter;fontSize=16;" parent="jWN17VbowBbJggwUlKNN-69" target="jWN17VbowBbJggwUlKNN-71" edge="1">
          <mxGeometry width="50" height="50" relative="1" as="geometry">
            <mxPoint x="31.166666666666664" y="45.11160714285714" as="sourcePoint" />
            <mxPoint x="53.166666666666664" y="68.14732142857142" as="targetPoint" />
            <Array as="points">
              <mxPoint x="45.83333333333333" y="45.11160714285714" />
              <mxPoint x="49.50000000000001" y="56.629464285714285" />
            </Array>
          </mxGeometry>
        </mxCell>
        <mxCell id="jWN17VbowBbJggwUlKNN-76" value="" style="ellipse;whiteSpace=wrap;html=1;aspect=fixed;sketch=1;hachureGap=4;jiggle=2;curveFitting=1;fontFamily=Hi Melody;fontSource=https%3A%2F%2Ffonts.googleapis.com%2Fcss%3Ffamily%3DHi%2BMelody;fontSize=12;" parent="jWN17VbowBbJggwUlKNN-69" vertex="1">
          <mxGeometry x="47.666666666666664" y="10.558035714285714" width="14.51063829787234" height="14.51063829787234" as="geometry" />
        </mxCell>
        <mxCell id="jWN17VbowBbJggwUlKNN-77" value="" style="curved=1;endArrow=classic;html=1;rounded=0;sketch=1;hachureGap=4;jiggle=2;curveFitting=1;fontFamily=Architects Daughter;fontSource=https%3A%2F%2Ffonts.googleapis.com%2Fcss%3Ffamily%3DArchitects%2BDaughter;fontSize=16;" parent="jWN17VbowBbJggwUlKNN-69" target="jWN17VbowBbJggwUlKNN-71" edge="1">
          <mxGeometry width="50" height="50" relative="1" as="geometry">
            <mxPoint x="53.166666666666664" y="29.75446428571429" as="sourcePoint" />
            <mxPoint x="49.50000000000001" y="56.629464285714285" as="targetPoint" />
            <Array as="points">
              <mxPoint x="53.166666666666664" y="45.11160714285714" />
              <mxPoint x="56.83333333333333" y="48.950892857142854" />
              <mxPoint x="55.00000000000001" y="56.629464285714285" />
            </Array>
          </mxGeometry>
        </mxCell>
        <mxCell id="jWN17VbowBbJggwUlKNN-94" value="" style="group" parent="jWN17VbowBbJggwUlKNN-111" vertex="1" connectable="0">
          <mxGeometry x="90" y="200" width="110" height="105" as="geometry" />
        </mxCell>
        <mxCell id="jWN17VbowBbJggwUlKNN-95" value="" style="shape=sumEllipse;perimeter=ellipsePerimeter;whiteSpace=wrap;html=1;backgroundOutline=1;sketch=1;hachureGap=4;jiggle=2;curveFitting=1;fontFamily=Hi Melody;fontSource=https%3A%2F%2Ffonts.googleapis.com%2Fcss%3Ffamily%3DHi%2BMelody;fontSize=24;fillColor=#e3c800;fontColor=#000000;strokeColor=#B09500;" parent="jWN17VbowBbJggwUlKNN-94" vertex="1">
          <mxGeometry width="110.00000000000003" height="105.00000000000004" as="geometry" />
        </mxCell>
        <mxCell id="jWN17VbowBbJggwUlKNN-96" value="" style="html=1;whiteSpace=wrap;shape=isoCube2;backgroundOutline=1;isoAngle=7.7272727272727275;sketch=1;hachureGap=4;jiggle=2;curveFitting=1;fontFamily=Hi Melody;fontSize=24;fillColor=#dae8fc;strokeColor=#6c8ebf;fontStyle=0;fontSource=https%3A%2F%2Ffonts.googleapis.com%2Fcss%3Ffamily%3DHi%2BMelody;" parent="jWN17VbowBbJggwUlKNN-94" vertex="1">
          <mxGeometry x="31.166666666666618" y="55.312499999999986" width="47.666666666666664" height="41.25" as="geometry" />
        </mxCell>
        <mxCell id="jWN17VbowBbJggwUlKNN-97" value="" style="curved=1;endArrow=classic;html=1;rounded=0;sketch=1;hachureGap=4;jiggle=2;curveFitting=1;fontFamily=Architects Daughter;fontSource=https%3A%2F%2Ffonts.googleapis.com%2Fcss%3Ffamily%3DArchitects%2BDaughter;fontSize=16;" parent="jWN17VbowBbJggwUlKNN-94" target="jWN17VbowBbJggwUlKNN-96" edge="1">
          <mxGeometry width="50" height="50" relative="1" as="geometry">
            <mxPoint x="86.16666666666663" y="55.312499999999986" as="sourcePoint" />
            <mxPoint x="60.5" y="66.56249999999999" as="targetPoint" />
            <Array as="points">
              <mxPoint x="86.16666666666663" y="44.0625" />
              <mxPoint x="67.83333333333339" y="47.81250000000001" />
            </Array>
          </mxGeometry>
        </mxCell>
        <mxCell id="jWN17VbowBbJggwUlKNN-98" value="" style="ellipse;whiteSpace=wrap;html=1;aspect=fixed;sketch=1;hachureGap=4;jiggle=2;curveFitting=1;fontFamily=Hi Melody;fontSource=https%3A%2F%2Ffonts.googleapis.com%2Fcss%3Ffamily%3DHi%2BMelody;fontSize=12;" parent="jWN17VbowBbJggwUlKNN-94" vertex="1">
          <mxGeometry x="16.5" y="36.56250000000001" width="12.055811549579618" height="12.055811549579618" as="geometry" />
        </mxCell>
        <mxCell id="jWN17VbowBbJggwUlKNN-99" value="" style="curved=1;endArrow=classic;html=1;rounded=0;sketch=1;hachureGap=4;jiggle=2;curveFitting=1;fontFamily=Architects Daughter;fontSource=https%3A%2F%2Ffonts.googleapis.com%2Fcss%3Ffamily%3DArchitects%2BDaughter;fontSize=16;" parent="jWN17VbowBbJggwUlKNN-94" target="jWN17VbowBbJggwUlKNN-96" edge="1">
          <mxGeometry width="50" height="50" relative="1" as="geometry">
            <mxPoint x="31.166666666666618" y="44.0625" as="sourcePoint" />
            <mxPoint x="53.16666666666663" y="66.56249999999999" as="targetPoint" />
            <Array as="points">
              <mxPoint x="45.83333333333338" y="44.0625" />
              <mxPoint x="49.5" y="55.312499999999986" />
            </Array>
          </mxGeometry>
        </mxCell>
        <mxCell id="jWN17VbowBbJggwUlKNN-100" value="" style="curved=1;endArrow=classic;html=1;rounded=0;sketch=1;hachureGap=4;jiggle=2;curveFitting=1;fontFamily=Architects Daughter;fontSource=https%3A%2F%2Ffonts.googleapis.com%2Fcss%3Ffamily%3DArchitects%2BDaughter;fontSize=16;" parent="jWN17VbowBbJggwUlKNN-94" target="jWN17VbowBbJggwUlKNN-96" edge="1">
          <mxGeometry width="50" height="50" relative="1" as="geometry">
            <mxPoint x="53.16666666666663" y="29.06250000000001" as="sourcePoint" />
            <mxPoint x="49.5" y="55.312499999999986" as="targetPoint" />
            <Array as="points">
              <mxPoint x="53.16666666666663" y="44.0625" />
              <mxPoint x="56.83333333333338" y="47.81250000000001" />
              <mxPoint x="55" y="55.312499999999986" />
            </Array>
          </mxGeometry>
        </mxCell>
        <mxCell id="jWN17VbowBbJggwUlKNN-101" value="" style="rounded=0;whiteSpace=wrap;html=1;sketch=1;hachureGap=4;jiggle=2;fillStyle=auto;curveFitting=1;fontFamily=Hi Melody;fontSource=https%3A%2F%2Ffonts.googleapis.com%2Fcss%3Ffamily%3DHi%2BMelody;fontSize=24;fillColor=default;" parent="jWN17VbowBbJggwUlKNN-94" vertex="1">
          <mxGeometry x="86.84210526315789" y="50.73833333333334" width="11.578947368421053" height="11.666666666666668" as="geometry" />
        </mxCell>
        <mxCell id="jWN17VbowBbJggwUlKNN-102" value="" style="rhombus;whiteSpace=wrap;html=1;sketch=1;hachureGap=4;jiggle=2;fillStyle=auto;curveFitting=1;fontFamily=Hi Melody;fontSource=https%3A%2F%2Ffonts.googleapis.com%2Fcss%3Ffamily%3DHi%2BMelody;fontSize=24;fillColor=default;" parent="jWN17VbowBbJggwUlKNN-94" vertex="1">
          <mxGeometry x="46.31578947368421" y="11.666666666666668" width="17.36842105263158" height="17.5" as="geometry" />
        </mxCell>
        <mxCell id="jWN17VbowBbJggwUlKNN-106" value="" style="group" parent="jWN17VbowBbJggwUlKNN-111" vertex="1" connectable="0">
          <mxGeometry x="281" y="20" width="110" height="107.5" as="geometry" />
        </mxCell>
        <mxCell id="jWN17VbowBbJggwUlKNN-61" value="" style="shape=sumEllipse;perimeter=ellipsePerimeter;whiteSpace=wrap;html=1;backgroundOutline=1;sketch=1;hachureGap=4;jiggle=2;curveFitting=1;fontFamily=Hi Melody;fontSource=https%3A%2F%2Ffonts.googleapis.com%2Fcss%3Ffamily%3DHi%2BMelody;fontSize=24;fillColor=#d5e8d4;strokeColor=#82b366;" parent="jWN17VbowBbJggwUlKNN-106" vertex="1">
          <mxGeometry width="110.00000000000001" height="107.50000000000001" as="geometry" />
        </mxCell>
        <mxCell id="jWN17VbowBbJggwUlKNN-62" value="" style="html=1;whiteSpace=wrap;shape=isoCube2;backgroundOutline=1;isoAngle=7.7272727272727275;sketch=1;hachureGap=4;jiggle=2;curveFitting=1;fontFamily=Hi Melody;fontSize=24;fillColor=#dae8fc;strokeColor=#6c8ebf;fontStyle=0;fontSource=https%3A%2F%2Ffonts.googleapis.com%2Fcss%3Ffamily%3DHi%2BMelody;" parent="jWN17VbowBbJggwUlKNN-106" vertex="1">
          <mxGeometry x="31.16666666666663" y="56.629464285714334" width="47.666666666666664" height="42.232142857142854" as="geometry" />
        </mxCell>
        <mxCell id="jWN17VbowBbJggwUlKNN-63" value="" style="curved=1;endArrow=classic;html=1;rounded=0;sketch=1;hachureGap=4;jiggle=2;curveFitting=1;fontFamily=Architects Daughter;fontSource=https%3A%2F%2Ffonts.googleapis.com%2Fcss%3Ffamily%3DArchitects%2BDaughter;fontSize=16;" parent="jWN17VbowBbJggwUlKNN-106" target="jWN17VbowBbJggwUlKNN-62" edge="1">
          <mxGeometry width="50" height="50" relative="1" as="geometry">
            <mxPoint x="86.16666666666663" y="56.629464285714334" as="sourcePoint" />
            <mxPoint x="60.5" y="68.14732142857144" as="targetPoint" />
            <Array as="points">
              <mxPoint x="86.16666666666663" y="45.11160714285711" />
              <mxPoint x="67.83333333333337" y="48.95089285714289" />
            </Array>
          </mxGeometry>
        </mxCell>
        <mxCell id="jWN17VbowBbJggwUlKNN-64" value="" style="ellipse;whiteSpace=wrap;html=1;aspect=fixed;sketch=1;hachureGap=4;jiggle=2;curveFitting=1;fontFamily=Hi Melody;fontSource=https%3A%2F%2Ffonts.googleapis.com%2Fcss%3Ffamily%3DHi%2BMelody;fontSize=12;" parent="jWN17VbowBbJggwUlKNN-106" vertex="1">
          <mxGeometry x="86.16666666666663" y="56.629464285714334" width="14.51063829787234" height="14.51063829787234" as="geometry" />
        </mxCell>
        <mxCell id="jWN17VbowBbJggwUlKNN-65" value="" style="ellipse;whiteSpace=wrap;html=1;aspect=fixed;sketch=1;hachureGap=4;jiggle=2;curveFitting=1;fontFamily=Hi Melody;fontSource=https%3A%2F%2Ffonts.googleapis.com%2Fcss%3Ffamily%3DHi%2BMelody;fontSize=12;" parent="jWN17VbowBbJggwUlKNN-106" vertex="1">
          <mxGeometry x="16.5" y="37.433035714285666" width="14.51063829787234" height="14.51063829787234" as="geometry" />
        </mxCell>
        <mxCell id="jWN17VbowBbJggwUlKNN-66" value="" style="curved=1;endArrow=classic;html=1;rounded=0;sketch=1;hachureGap=4;jiggle=2;curveFitting=1;fontFamily=Architects Daughter;fontSource=https%3A%2F%2Ffonts.googleapis.com%2Fcss%3Ffamily%3DArchitects%2BDaughter;fontSize=16;" parent="jWN17VbowBbJggwUlKNN-106" target="jWN17VbowBbJggwUlKNN-62" edge="1">
          <mxGeometry width="50" height="50" relative="1" as="geometry">
            <mxPoint x="31.16666666666663" y="45.11160714285711" as="sourcePoint" />
            <mxPoint x="53.16666666666663" y="68.14732142857144" as="targetPoint" />
            <Array as="points">
              <mxPoint x="45.83333333333337" y="45.11160714285711" />
              <mxPoint x="49.5" y="56.629464285714334" />
            </Array>
          </mxGeometry>
        </mxCell>
        <mxCell id="jWN17VbowBbJggwUlKNN-67" value="" style="ellipse;whiteSpace=wrap;html=1;aspect=fixed;sketch=1;hachureGap=4;jiggle=2;curveFitting=1;fontFamily=Hi Melody;fontSource=https%3A%2F%2Ffonts.googleapis.com%2Fcss%3Ffamily%3DHi%2BMelody;fontSize=12;" parent="jWN17VbowBbJggwUlKNN-106" vertex="1">
          <mxGeometry x="47.66666666666663" y="10.558035714285666" width="14.51063829787234" height="14.51063829787234" as="geometry" />
        </mxCell>
        <mxCell id="jWN17VbowBbJggwUlKNN-68" value="" style="curved=1;endArrow=classic;html=1;rounded=0;sketch=1;hachureGap=4;jiggle=2;curveFitting=1;fontFamily=Architects Daughter;fontSource=https%3A%2F%2Ffonts.googleapis.com%2Fcss%3Ffamily%3DArchitects%2BDaughter;fontSize=16;" parent="jWN17VbowBbJggwUlKNN-106" target="jWN17VbowBbJggwUlKNN-62" edge="1">
          <mxGeometry width="50" height="50" relative="1" as="geometry">
            <mxPoint x="53.16666666666663" y="29.754464285714334" as="sourcePoint" />
            <mxPoint x="49.5" y="56.629464285714334" as="targetPoint" />
            <Array as="points">
              <mxPoint x="53.16666666666663" y="45.11160714285711" />
              <mxPoint x="56.83333333333337" y="48.95089285714289" />
              <mxPoint x="55" y="56.629464285714334" />
            </Array>
          </mxGeometry>
        </mxCell>
        <mxCell id="jWN17VbowBbJggwUlKNN-109" value="" style="group" parent="jWN17VbowBbJggwUlKNN-111" vertex="1" connectable="0">
          <mxGeometry x="40" y="30" width="110" height="107.5" as="geometry" />
        </mxCell>
        <mxCell id="jWN17VbowBbJggwUlKNN-43" value="" style="shape=sumEllipse;perimeter=ellipsePerimeter;whiteSpace=wrap;html=1;backgroundOutline=1;sketch=1;hachureGap=4;jiggle=2;curveFitting=1;fontFamily=Hi Melody;fontSource=https%3A%2F%2Ffonts.googleapis.com%2Fcss%3Ffamily%3DHi%2BMelody;fontSize=24;fillColor=#dae8fc;strokeColor=#6c8ebf;" parent="jWN17VbowBbJggwUlKNN-109" vertex="1">
          <mxGeometry width="110.00000000000001" height="107.50000000000001" as="geometry" />
        </mxCell>
        <mxCell id="jWN17VbowBbJggwUlKNN-44" value="" style="html=1;whiteSpace=wrap;shape=isoCube2;backgroundOutline=1;isoAngle=7.7272727272727275;sketch=1;hachureGap=4;jiggle=2;curveFitting=1;fontFamily=Hi Melody;fontSize=24;fillColor=#dae8fc;strokeColor=#6c8ebf;fontStyle=0;fontSource=https%3A%2F%2Ffonts.googleapis.com%2Fcss%3Ffamily%3DHi%2BMelody;" parent="jWN17VbowBbJggwUlKNN-109" vertex="1">
          <mxGeometry x="31.16666666666663" y="56.629464285714334" width="47.666666666666664" height="42.232142857142854" as="geometry" />
        </mxCell>
        <mxCell id="jWN17VbowBbJggwUlKNN-45" value="" style="curved=1;endArrow=classic;html=1;rounded=0;sketch=1;hachureGap=4;jiggle=2;curveFitting=1;fontFamily=Architects Daughter;fontSource=https%3A%2F%2Ffonts.googleapis.com%2Fcss%3Ffamily%3DArchitects%2BDaughter;fontSize=16;" parent="jWN17VbowBbJggwUlKNN-109" target="jWN17VbowBbJggwUlKNN-44" edge="1">
          <mxGeometry width="50" height="50" relative="1" as="geometry">
            <mxPoint x="86.16666666666674" y="56.629464285714334" as="sourcePoint" />
            <mxPoint x="60.5" y="68.14732142857144" as="targetPoint" />
            <Array as="points">
              <mxPoint x="86.16666666666674" y="45.11160714285711" />
              <mxPoint x="67.83333333333337" y="48.95089285714289" />
            </Array>
          </mxGeometry>
        </mxCell>
        <mxCell id="jWN17VbowBbJggwUlKNN-46" value="" style="ellipse;whiteSpace=wrap;html=1;aspect=fixed;sketch=1;hachureGap=4;jiggle=2;curveFitting=1;fontFamily=Hi Melody;fontSource=https%3A%2F%2Ffonts.googleapis.com%2Fcss%3Ffamily%3DHi%2BMelody;fontSize=12;" parent="jWN17VbowBbJggwUlKNN-109" vertex="1">
          <mxGeometry x="86.16666666666674" y="56.629464285714334" width="14.51063829787234" height="14.51063829787234" as="geometry" />
        </mxCell>
        <mxCell id="jWN17VbowBbJggwUlKNN-47" value="" style="ellipse;whiteSpace=wrap;html=1;aspect=fixed;sketch=1;hachureGap=4;jiggle=2;curveFitting=1;fontFamily=Hi Melody;fontSource=https%3A%2F%2Ffonts.googleapis.com%2Fcss%3Ffamily%3DHi%2BMelody;fontSize=12;" parent="jWN17VbowBbJggwUlKNN-109" vertex="1">
          <mxGeometry x="16.5" y="37.433035714285666" width="14.51063829787234" height="14.51063829787234" as="geometry" />
        </mxCell>
        <mxCell id="jWN17VbowBbJggwUlKNN-48" value="" style="curved=1;endArrow=classic;html=1;rounded=0;sketch=1;hachureGap=4;jiggle=2;curveFitting=1;fontFamily=Architects Daughter;fontSource=https%3A%2F%2Ffonts.googleapis.com%2Fcss%3Ffamily%3DArchitects%2BDaughter;fontSize=16;" parent="jWN17VbowBbJggwUlKNN-109" target="jWN17VbowBbJggwUlKNN-44" edge="1">
          <mxGeometry width="50" height="50" relative="1" as="geometry">
            <mxPoint x="31.16666666666663" y="45.11160714285711" as="sourcePoint" />
            <mxPoint x="53.16666666666663" y="68.14732142857144" as="targetPoint" />
            <Array as="points">
              <mxPoint x="45.83333333333337" y="45.11160714285711" />
              <mxPoint x="49.5" y="56.629464285714334" />
            </Array>
          </mxGeometry>
        </mxCell>
        <mxCell id="jWN17VbowBbJggwUlKNN-49" value="" style="ellipse;whiteSpace=wrap;html=1;aspect=fixed;sketch=1;hachureGap=4;jiggle=2;curveFitting=1;fontFamily=Hi Melody;fontSource=https%3A%2F%2Ffonts.googleapis.com%2Fcss%3Ffamily%3DHi%2BMelody;fontSize=12;" parent="jWN17VbowBbJggwUlKNN-109" vertex="1">
          <mxGeometry x="47.66666666666663" y="10.558035714285722" width="14.51063829787234" height="14.51063829787234" as="geometry" />
        </mxCell>
        <mxCell id="jWN17VbowBbJggwUlKNN-50" value="" style="curved=1;endArrow=classic;html=1;rounded=0;sketch=1;hachureGap=4;jiggle=2;curveFitting=1;fontFamily=Architects Daughter;fontSource=https%3A%2F%2Ffonts.googleapis.com%2Fcss%3Ffamily%3DArchitects%2BDaughter;fontSize=16;" parent="jWN17VbowBbJggwUlKNN-109" target="jWN17VbowBbJggwUlKNN-44" edge="1">
          <mxGeometry width="50" height="50" relative="1" as="geometry">
            <mxPoint x="53.16666666666663" y="29.754464285714334" as="sourcePoint" />
            <mxPoint x="49.5" y="56.629464285714334" as="targetPoint" />
            <Array as="points">
              <mxPoint x="53.16666666666663" y="45.11160714285711" />
              <mxPoint x="56.83333333333337" y="48.95089285714289" />
              <mxPoint x="55" y="56.629464285714334" />
            </Array>
          </mxGeometry>
        </mxCell>
        <mxCell id="jWN17VbowBbJggwUlKNN-110" value="" style="group" parent="jWN17VbowBbJggwUlKNN-111" vertex="1" connectable="0">
          <mxGeometry x="162.5" y="97" width="105" height="103" as="geometry" />
        </mxCell>
        <mxCell id="jWN17VbowBbJggwUlKNN-52" value="" style="shape=sumEllipse;perimeter=ellipsePerimeter;whiteSpace=wrap;html=1;backgroundOutline=1;sketch=1;hachureGap=4;jiggle=2;curveFitting=1;fontFamily=Hi Melody;fontSource=https%3A%2F%2Ffonts.googleapis.com%2Fcss%3Ffamily%3DHi%2BMelody;fontSize=24;fillColor=#e1d5e7;strokeColor=#9673a6;" parent="jWN17VbowBbJggwUlKNN-110" vertex="1">
          <mxGeometry width="105" height="103.00000000000001" as="geometry" />
        </mxCell>
        <mxCell id="jWN17VbowBbJggwUlKNN-53" value="" style="html=1;whiteSpace=wrap;shape=isoCube2;backgroundOutline=1;isoAngle=7.7272727272727275;sketch=1;hachureGap=4;jiggle=2;curveFitting=1;fontFamily=Hi Melody;fontSize=24;fillColor=#e1d5e7;strokeColor=#9673a6;fontStyle=0;fontSource=https%3A%2F%2Ffonts.googleapis.com%2Fcss%3Ffamily%3DHi%2BMelody;" parent="jWN17VbowBbJggwUlKNN-110" vertex="1">
          <mxGeometry x="29.75" y="54.258928571428555" width="45.49999999999999" height="40.46428571428571" as="geometry" />
        </mxCell>
        <mxCell id="jWN17VbowBbJggwUlKNN-54" value="" style="curved=1;endArrow=classic;html=1;rounded=0;sketch=1;hachureGap=4;jiggle=2;curveFitting=1;fontFamily=Architects Daughter;fontSource=https%3A%2F%2Ffonts.googleapis.com%2Fcss%3Ffamily%3DArchitects%2BDaughter;fontSize=16;fillColor=#e1d5e7;strokeColor=#9673a6;" parent="jWN17VbowBbJggwUlKNN-110" target="jWN17VbowBbJggwUlKNN-53" edge="1">
          <mxGeometry width="50" height="50" relative="1" as="geometry">
            <mxPoint x="82.25" y="54.258928571428555" as="sourcePoint" />
            <mxPoint x="57.75" y="65.29464285714289" as="targetPoint" />
            <Array as="points">
              <mxPoint x="82.25" y="43.22321428571422" />
              <mxPoint x="64.75" y="46.901785714285666" />
            </Array>
          </mxGeometry>
        </mxCell>
        <mxCell id="jWN17VbowBbJggwUlKNN-55" value="" style="ellipse;whiteSpace=wrap;html=1;aspect=fixed;sketch=1;hachureGap=4;jiggle=2;curveFitting=1;fontFamily=Hi Melody;fontSource=https%3A%2F%2Ffonts.googleapis.com%2Fcss%3Ffamily%3DHi%2BMelody;fontSize=12;fillColor=#e1d5e7;strokeColor=#9673a6;" parent="jWN17VbowBbJggwUlKNN-110" vertex="1">
          <mxGeometry x="82.25" y="54.258928571428555" width="12.883301671526754" height="12.883301671526754" as="geometry" />
        </mxCell>
        <mxCell id="jWN17VbowBbJggwUlKNN-56" value="" style="ellipse;whiteSpace=wrap;html=1;aspect=fixed;sketch=1;hachureGap=4;jiggle=2;curveFitting=1;fontFamily=Hi Melody;fontSource=https%3A%2F%2Ffonts.googleapis.com%2Fcss%3Ffamily%3DHi%2BMelody;fontSize=12;fillColor=#e1d5e7;strokeColor=#9673a6;" parent="jWN17VbowBbJggwUlKNN-110" vertex="1">
          <mxGeometry x="15.75" y="35.866071428571445" width="12.883301671526754" height="12.883301671526754" as="geometry" />
        </mxCell>
        <mxCell id="jWN17VbowBbJggwUlKNN-57" value="" style="curved=1;endArrow=classic;html=1;rounded=0;sketch=1;hachureGap=4;jiggle=2;curveFitting=1;fontFamily=Architects Daughter;fontSource=https%3A%2F%2Ffonts.googleapis.com%2Fcss%3Ffamily%3DArchitects%2BDaughter;fontSize=16;fillColor=#e1d5e7;strokeColor=#9673a6;" parent="jWN17VbowBbJggwUlKNN-110" target="jWN17VbowBbJggwUlKNN-53" edge="1">
          <mxGeometry width="50" height="50" relative="1" as="geometry">
            <mxPoint x="29.75" y="43.22321428571422" as="sourcePoint" />
            <mxPoint x="50.75" y="65.29464285714289" as="targetPoint" />
            <Array as="points">
              <mxPoint x="43.75" y="43.22321428571422" />
              <mxPoint x="47.25" y="54.258928571428555" />
            </Array>
          </mxGeometry>
        </mxCell>
        <mxCell id="jWN17VbowBbJggwUlKNN-58" value="" style="ellipse;whiteSpace=wrap;html=1;aspect=fixed;sketch=1;hachureGap=4;jiggle=2;curveFitting=1;fontFamily=Hi Melody;fontSource=https%3A%2F%2Ffonts.googleapis.com%2Fcss%3Ffamily%3DHi%2BMelody;fontSize=12;fillColor=#e1d5e7;strokeColor=#9673a6;" parent="jWN17VbowBbJggwUlKNN-110" vertex="1">
          <mxGeometry x="45.5" y="10.116071428571445" width="12.883301671526754" height="12.883301671526754" as="geometry" />
        </mxCell>
        <mxCell id="jWN17VbowBbJggwUlKNN-59" value="" style="curved=1;endArrow=classic;html=1;rounded=0;sketch=1;hachureGap=4;jiggle=2;curveFitting=1;fontFamily=Architects Daughter;fontSource=https%3A%2F%2Ffonts.googleapis.com%2Fcss%3Ffamily%3DArchitects%2BDaughter;fontSize=16;fillColor=#e1d5e7;strokeColor=#9673a6;" parent="jWN17VbowBbJggwUlKNN-110" target="jWN17VbowBbJggwUlKNN-53" edge="1">
          <mxGeometry width="50" height="50" relative="1" as="geometry">
            <mxPoint x="50.75" y="28.508928571428555" as="sourcePoint" />
            <mxPoint x="47.25" y="54.258928571428555" as="targetPoint" />
            <Array as="points">
              <mxPoint x="50.75" y="43.22321428571422" />
              <mxPoint x="54.25" y="46.901785714285666" />
              <mxPoint x="52.5" y="54.258928571428555" />
            </Array>
          </mxGeometry>
        </mxCell>
        <mxCell id="jWN17VbowBbJggwUlKNN-112" value="이것들을 운반할 수 있는 트럭이나 선반에 묶여 함께 이동할 수 있다." style="text;html=1;align=center;verticalAlign=middle;resizable=0;points=[];autosize=1;strokeColor=none;fillColor=none;fontSize=20;fontFamily=Hi Melody;fontSource=https%3A%2F%2Ffonts.googleapis.com%2Fcss%3Ffamily%3DHi%2BMelody;" parent="1" vertex="1">
          <mxGeometry x="545" y="930" width="510" height="40" as="geometry" />
        </mxCell>
        <mxCell id="jWN17VbowBbJggwUlKNN-113" value="" style="group" parent="1" vertex="1" connectable="0">
          <mxGeometry x="90" y="600" width="190" height="180" as="geometry" />
        </mxCell>
        <mxCell id="jWN17VbowBbJggwUlKNN-114" value="" style="shape=sumEllipse;perimeter=ellipsePerimeter;whiteSpace=wrap;html=1;backgroundOutline=1;sketch=1;hachureGap=4;jiggle=2;curveFitting=1;fontFamily=Hi Melody;fontSource=https%3A%2F%2Ffonts.googleapis.com%2Fcss%3Ffamily%3DHi%2BMelody;fontSize=24;fillColor=#f5f5f5;fontColor=#333333;strokeColor=#666666;" parent="jWN17VbowBbJggwUlKNN-113" vertex="1">
          <mxGeometry width="190.00000000000003" height="180.00000000000003" as="geometry" />
        </mxCell>
        <mxCell id="jWN17VbowBbJggwUlKNN-115" value="" style="html=1;whiteSpace=wrap;shape=isoCube2;backgroundOutline=1;isoAngle=7.7272727272727275;sketch=1;hachureGap=4;jiggle=2;curveFitting=1;fontFamily=Hi Melody;fontSize=24;fillColor=#dae8fc;strokeColor=#6c8ebf;fontStyle=0;fontSource=https%3A%2F%2Ffonts.googleapis.com%2Fcss%3Ffamily%3DHi%2BMelody;" parent="jWN17VbowBbJggwUlKNN-113" vertex="1">
          <mxGeometry x="53.83333333333333" y="94.82142857142857" width="82.33333333333333" height="70.71428571428571" as="geometry" />
        </mxCell>
        <mxCell id="jWN17VbowBbJggwUlKNN-116" value="" style="curved=1;endArrow=classic;html=1;rounded=0;sketch=1;hachureGap=4;jiggle=2;curveFitting=1;fontFamily=Architects Daughter;fontSource=https%3A%2F%2Ffonts.googleapis.com%2Fcss%3Ffamily%3DArchitects%2BDaughter;fontSize=16;" parent="jWN17VbowBbJggwUlKNN-113" target="jWN17VbowBbJggwUlKNN-115" edge="1">
          <mxGeometry width="50" height="50" relative="1" as="geometry">
            <mxPoint x="148.83333333333334" y="94.82142857142857" as="sourcePoint" />
            <mxPoint x="104.50000000000001" y="114.10714285714285" as="targetPoint" />
            <Array as="points">
              <mxPoint x="148.83333333333334" y="75.53571428571428" />
              <mxPoint x="117.16666666666666" y="81.96428571428571" />
            </Array>
          </mxGeometry>
        </mxCell>
        <mxCell id="jWN17VbowBbJggwUlKNN-117" value="" style="ellipse;whiteSpace=wrap;html=1;aspect=fixed;sketch=1;hachureGap=4;jiggle=2;curveFitting=1;fontFamily=Hi Melody;fontSource=https%3A%2F%2Ffonts.googleapis.com%2Fcss%3Ffamily%3DHi%2BMelody;fontSize=12;" parent="jWN17VbowBbJggwUlKNN-113" vertex="1">
          <mxGeometry x="148.83333333333334" y="94.82142857142857" width="24.29688273132113" height="24.29688273132113" as="geometry" />
        </mxCell>
        <mxCell id="jWN17VbowBbJggwUlKNN-118" value="" style="ellipse;whiteSpace=wrap;html=1;aspect=fixed;sketch=1;hachureGap=4;jiggle=2;curveFitting=1;fontFamily=Hi Melody;fontSource=https%3A%2F%2Ffonts.googleapis.com%2Fcss%3Ffamily%3DHi%2BMelody;fontSize=12;" parent="jWN17VbowBbJggwUlKNN-113" vertex="1">
          <mxGeometry x="28.5" y="62.67857142857143" width="24.29688273132113" height="24.29688273132113" as="geometry" />
        </mxCell>
        <mxCell id="jWN17VbowBbJggwUlKNN-119" value="" style="curved=1;endArrow=classic;html=1;rounded=0;sketch=1;hachureGap=4;jiggle=2;curveFitting=1;fontFamily=Architects Daughter;fontSource=https%3A%2F%2Ffonts.googleapis.com%2Fcss%3Ffamily%3DArchitects%2BDaughter;fontSize=16;" parent="jWN17VbowBbJggwUlKNN-113" target="jWN17VbowBbJggwUlKNN-115" edge="1">
          <mxGeometry width="50" height="50" relative="1" as="geometry">
            <mxPoint x="53.83333333333333" y="75.53571428571428" as="sourcePoint" />
            <mxPoint x="91.83333333333333" y="114.10714285714285" as="targetPoint" />
            <Array as="points">
              <mxPoint x="79.16666666666666" y="75.53571428571428" />
              <mxPoint x="85.50000000000001" y="94.82142857142857" />
            </Array>
          </mxGeometry>
        </mxCell>
        <mxCell id="jWN17VbowBbJggwUlKNN-120" value="" style="ellipse;whiteSpace=wrap;html=1;aspect=fixed;sketch=1;hachureGap=4;jiggle=2;curveFitting=1;fontFamily=Hi Melody;fontSource=https%3A%2F%2Ffonts.googleapis.com%2Fcss%3Ffamily%3DHi%2BMelody;fontSize=12;" parent="jWN17VbowBbJggwUlKNN-113" vertex="1">
          <mxGeometry x="82.33333333333333" y="17.678571428571427" width="24.29688273132113" height="24.29688273132113" as="geometry" />
        </mxCell>
        <mxCell id="jWN17VbowBbJggwUlKNN-121" value="" style="curved=1;endArrow=classic;html=1;rounded=0;sketch=1;hachureGap=4;jiggle=2;curveFitting=1;fontFamily=Architects Daughter;fontSource=https%3A%2F%2Ffonts.googleapis.com%2Fcss%3Ffamily%3DArchitects%2BDaughter;fontSize=16;" parent="jWN17VbowBbJggwUlKNN-113" target="jWN17VbowBbJggwUlKNN-115" edge="1">
          <mxGeometry width="50" height="50" relative="1" as="geometry">
            <mxPoint x="91.83333333333333" y="49.82142857142858" as="sourcePoint" />
            <mxPoint x="85.50000000000001" y="94.82142857142857" as="targetPoint" />
            <Array as="points">
              <mxPoint x="91.83333333333333" y="75.53571428571428" />
              <mxPoint x="98.16666666666666" y="81.96428571428571" />
              <mxPoint x="95.00000000000001" y="94.82142857142857" />
            </Array>
          </mxGeometry>
        </mxCell>
        <mxCell id="jWN17VbowBbJggwUlKNN-122" value="" style="group" parent="1" vertex="1" connectable="0">
          <mxGeometry x="290" y="670" width="190" height="180" as="geometry" />
        </mxCell>
        <mxCell id="jWN17VbowBbJggwUlKNN-123" value="" style="shape=sumEllipse;perimeter=ellipsePerimeter;whiteSpace=wrap;html=1;backgroundOutline=1;sketch=1;hachureGap=4;jiggle=2;curveFitting=1;fontFamily=Hi Melody;fontSource=https%3A%2F%2Ffonts.googleapis.com%2Fcss%3Ffamily%3DHi%2BMelody;fontSize=24;fillColor=#e3c800;fontColor=#000000;strokeColor=#B09500;" parent="jWN17VbowBbJggwUlKNN-122" vertex="1">
          <mxGeometry width="190.00000000000003" height="180.00000000000003" as="geometry" />
        </mxCell>
        <mxCell id="jWN17VbowBbJggwUlKNN-124" value="" style="html=1;whiteSpace=wrap;shape=isoCube2;backgroundOutline=1;isoAngle=7.7272727272727275;sketch=1;hachureGap=4;jiggle=2;curveFitting=1;fontFamily=Hi Melody;fontSize=24;fillColor=#dae8fc;strokeColor=#6c8ebf;fontStyle=0;fontSource=https%3A%2F%2Ffonts.googleapis.com%2Fcss%3Ffamily%3DHi%2BMelody;" parent="jWN17VbowBbJggwUlKNN-122" vertex="1">
          <mxGeometry x="53.83333333333326" y="94.82142857142856" width="82.33333333333333" height="70.71428571428571" as="geometry" />
        </mxCell>
        <mxCell id="jWN17VbowBbJggwUlKNN-125" value="" style="curved=1;endArrow=classic;html=1;rounded=0;sketch=1;hachureGap=4;jiggle=2;curveFitting=1;fontFamily=Architects Daughter;fontSource=https%3A%2F%2Ffonts.googleapis.com%2Fcss%3Ffamily%3DArchitects%2BDaughter;fontSize=16;" parent="jWN17VbowBbJggwUlKNN-122" target="jWN17VbowBbJggwUlKNN-124" edge="1">
          <mxGeometry width="50" height="50" relative="1" as="geometry">
            <mxPoint x="148.83333333333326" y="94.82142857142856" as="sourcePoint" />
            <mxPoint x="104.5" y="114.10714285714283" as="targetPoint" />
            <Array as="points">
              <mxPoint x="148.83333333333326" y="75.53571428571428" />
              <mxPoint x="117.16666666666674" y="81.96428571428572" />
            </Array>
          </mxGeometry>
        </mxCell>
        <mxCell id="jWN17VbowBbJggwUlKNN-126" value="" style="ellipse;whiteSpace=wrap;html=1;aspect=fixed;sketch=1;hachureGap=4;jiggle=2;curveFitting=1;fontFamily=Hi Melody;fontSource=https%3A%2F%2Ffonts.googleapis.com%2Fcss%3Ffamily%3DHi%2BMelody;fontSize=12;" parent="jWN17VbowBbJggwUlKNN-122" vertex="1">
          <mxGeometry x="28.5" y="62.678571428571445" width="24.29688273132113" height="24.29688273132113" as="geometry" />
        </mxCell>
        <mxCell id="jWN17VbowBbJggwUlKNN-127" value="" style="curved=1;endArrow=classic;html=1;rounded=0;sketch=1;hachureGap=4;jiggle=2;curveFitting=1;fontFamily=Architects Daughter;fontSource=https%3A%2F%2Ffonts.googleapis.com%2Fcss%3Ffamily%3DArchitects%2BDaughter;fontSize=16;" parent="jWN17VbowBbJggwUlKNN-122" target="jWN17VbowBbJggwUlKNN-124" edge="1">
          <mxGeometry width="50" height="50" relative="1" as="geometry">
            <mxPoint x="53.83333333333326" y="75.53571428571428" as="sourcePoint" />
            <mxPoint x="91.83333333333326" y="114.10714285714283" as="targetPoint" />
            <Array as="points">
              <mxPoint x="79.16666666666674" y="75.53571428571428" />
              <mxPoint x="85.5" y="94.82142857142856" />
            </Array>
          </mxGeometry>
        </mxCell>
        <mxCell id="jWN17VbowBbJggwUlKNN-128" value="" style="curved=1;endArrow=classic;html=1;rounded=0;sketch=1;hachureGap=4;jiggle=2;curveFitting=1;fontFamily=Architects Daughter;fontSource=https%3A%2F%2Ffonts.googleapis.com%2Fcss%3Ffamily%3DArchitects%2BDaughter;fontSize=16;" parent="jWN17VbowBbJggwUlKNN-122" target="jWN17VbowBbJggwUlKNN-124" edge="1">
          <mxGeometry width="50" height="50" relative="1" as="geometry">
            <mxPoint x="91.83333333333326" y="49.821428571428584" as="sourcePoint" />
            <mxPoint x="85.5" y="94.82142857142856" as="targetPoint" />
            <Array as="points">
              <mxPoint x="91.83333333333326" y="75.53571428571428" />
              <mxPoint x="98.16666666666674" y="81.96428571428572" />
              <mxPoint x="95" y="94.82142857142856" />
            </Array>
          </mxGeometry>
        </mxCell>
        <mxCell id="jWN17VbowBbJggwUlKNN-129" value="" style="rounded=0;whiteSpace=wrap;html=1;sketch=1;hachureGap=4;jiggle=2;fillStyle=auto;curveFitting=1;fontFamily=Hi Melody;fontSource=https%3A%2F%2Ffonts.googleapis.com%2Fcss%3Ffamily%3DHi%2BMelody;fontSize=24;fillColor=default;" parent="jWN17VbowBbJggwUlKNN-122" vertex="1">
          <mxGeometry x="150" y="86.98000000000002" width="20" height="20" as="geometry" />
        </mxCell>
        <mxCell id="jWN17VbowBbJggwUlKNN-130" value="" style="rhombus;whiteSpace=wrap;html=1;sketch=1;hachureGap=4;jiggle=2;fillStyle=auto;curveFitting=1;fontFamily=Hi Melody;fontSource=https%3A%2F%2Ffonts.googleapis.com%2Fcss%3Ffamily%3DHi%2BMelody;fontSize=24;fillColor=default;" parent="jWN17VbowBbJggwUlKNN-122" vertex="1">
          <mxGeometry x="80" y="20" width="30" height="30" as="geometry" />
        </mxCell>
        <mxCell id="jWN17VbowBbJggwUlKNN-131" value="" style="curved=1;endArrow=classic;html=1;rounded=0;sketch=1;hachureGap=4;jiggle=2;curveFitting=1;fontFamily=Hi Melody;fontSource=https%3A%2F%2Ffonts.googleapis.com%2Fcss%3Ffamily%3DHi%2BMelody;fontSize=24;startArrow=classic;startFill=1;exitX=0.589;exitY=0.017;exitDx=0;exitDy=0;edgeStyle=orthogonalEdgeStyle;exitPerimeter=0;fillColor=#dae8fc;strokeColor=#6c8ebf;" parent="1" source="jWN17VbowBbJggwUlKNN-114" target="jWN17VbowBbJggwUlKNN-123" edge="1">
          <mxGeometry width="50" height="50" relative="1" as="geometry">
            <mxPoint x="310" y="620" as="sourcePoint" />
            <mxPoint x="360" y="570" as="targetPoint" />
            <Array as="points">
              <mxPoint x="202" y="580" />
              <mxPoint x="410" y="580" />
            </Array>
          </mxGeometry>
        </mxCell>
        <mxCell id="jWN17VbowBbJggwUlKNN-133" value="" style="shape=cross;whiteSpace=wrap;html=1;rounded=1;sketch=1;hachureGap=4;jiggle=2;fillStyle=auto;curveFitting=1;fontFamily=Hi Melody;fontSource=https%3A%2F%2Ffonts.googleapis.com%2Fcss%3Ffamily%3DHi%2BMelody;fontSize=24;fillColor=#f8cecc;size=0;rotation=-45;strokeColor=#b85450;" parent="1" vertex="1">
          <mxGeometry x="260" y="530" width="113.23" height="108.05" as="geometry" />
        </mxCell>
        <mxCell id="jWN17VbowBbJggwUlKNN-135" value="이와 마찬가지로 소프트웨어 유닛, &lt;br&gt;코드가 포함된 패키지 및 코드를 실행하는 종속성을 &lt;br&gt;보관할 수 있으며 도커가 실행되는 모든 곳에서 이를 가져올 수 있다.&lt;br&gt;&lt;br&gt;그러면 실 사용 환경이 달라도 동일한 환경에서 실행하듯이&lt;br&gt;&amp;nbsp;정확히 동일한 애플리 케이션을 실행할 수 있다.&lt;br&gt;&lt;br&gt;모든 것이 컨테이너에 있기 때문에 애플리케이션을 실행할려는 위치에&lt;br&gt;추가 도구를 설치하는 것에 대해 걱정할 필요가 없다&lt;br&gt;&lt;br&gt;도커는 이러한 컨테이너를 구축하기 위한 도구일 뿐이다." style="text;html=1;align=center;verticalAlign=middle;resizable=0;points=[];autosize=1;strokeColor=none;fillColor=none;fontSize=20;fontFamily=Hi Melody;fontSource=https%3A%2F%2Ffonts.googleapis.com%2Fcss%3Ffamily%3DHi%2BMelody;" parent="1" vertex="1">
          <mxGeometry x="1090" y="525" width="530" height="280" as="geometry" />
        </mxCell>
        <mxCell id="o-hvrOK2VVBwhqWgFJjO-1" value="컨테이너는 커널이 존재하지 않는다. 그래서 도커는 플랫폼이다&lt;br style=&quot;font-size: 22px;&quot;&gt;os위에 올라가는 플랫폼애저 서비스 중 하나&lt;br style=&quot;font-size: 22px;&quot;&gt;os에 있는 커널을 도커 컨테이너가 공유해서 사용하는 기술이 도커의 핵심이다.&lt;br style=&quot;font-size: 22px;&quot;&gt;&lt;br style=&quot;font-size: 22px;&quot;&gt;따라서 컨테이너는 패키징한 논리적 공간이며 독립적이고 경량의 os를 담고있는 프로세스라고 할 수 있다." style="text;html=1;align=left;verticalAlign=middle;resizable=0;points=[];autosize=1;strokeColor=none;fillColor=none;fontSize=22;fontFamily=Hi Melody;fontSource=https%3A%2F%2Ffonts.googleapis.com%2Fcss%3Ffamily%3DHi%2BMelody;" parent="1" vertex="1">
          <mxGeometry x="1720" y="135" width="850" height="150" as="geometry" />
        </mxCell>
      </root>
    </mxGraphModel>
  </diagram>
</mxfile>
